<svg width="36" height="37" viewBox="0 0 36 37" fill="none" xmlns="http://www.w3.org/2000/svg">
<path d="M29.4 32.025L19.95 22.575C19.2 23.175 18.3375 23.65 17.3625 24C16.3875 24.35 15.35 24.525 14.25 24.525C11.525 24.525 9.219 23.5815 7.332 21.6945C5.444 19.8065 4.5 17.5 4.5 14.775C4.5 12.05 5.444 9.74352 7.332 7.85552C9.219 5.96852 11.525 5.02502 14.25 5.02502C16.975 5.02502 19.2815 5.96852 21.1695 7.85552C23.0565 9.74352 24 12.05 24 14.775C24 15.875 23.825 16.9125 23.475 17.8875C23.125 18.8625 22.65 19.725 22.05 20.475L31.5 29.925L29.4 32.025ZM14.25 21.525C16.125 21.525 17.719 20.869 19.032 19.557C20.344 18.244 21 16.65 21 14.775C21 12.9 20.344 11.306 19.032 9.99302C17.719 8.68102 16.125 8.02502 14.25 8.02502C12.375 8.02502 10.781 8.68102 9.468 9.99302C8.156 11.306 7.5 12.9 7.5 14.775C7.5 16.65 8.156 18.244 9.468 19.557C10.781 20.869 12.375 21.525 14.25 21.525Z" fill="#A9A6A6"/>
</svg>
