<svg width="36" height="37" viewBox="0 0 36 37" fill="none" xmlns="http://www.w3.org/2000/svg">
<path fill-rule="evenodd" clip-rule="evenodd" d="M28.2768 10.2018C28.4051 10.0737 28.5069 9.92159 28.5763 9.75413C28.6458 9.58668 28.6816 9.40718 28.6818 9.22588C28.6819 9.04458 28.6463 8.86504 28.577 8.6975C28.5077 8.52996 28.4061 8.37771 28.278 8.24943C28.1499 8.12116 27.9978 8.01937 27.8303 7.94989C27.6629 7.88041 27.4834 7.84459 27.3021 7.84448C27.1208 7.84437 26.9412 7.87996 26.7737 7.94924C26.6061 8.01852 26.4539 8.12011 26.3256 8.24823L18 16.5738L9.67681 8.24823C9.41774 7.98917 9.06638 7.84363 8.70001 7.84363C8.33364 7.84363 7.98227 7.98917 7.72321 8.24823C7.46414 8.50729 7.3186 8.85866 7.3186 9.22503C7.3186 9.5914 7.46414 9.94277 7.72321 10.2018L16.0488 18.525L7.72321 26.8482C7.59493 26.9765 7.49318 27.1288 7.42376 27.2964C7.35433 27.464 7.3186 27.6436 7.3186 27.825C7.3186 28.0064 7.35433 28.1861 7.42376 28.3537C7.49318 28.5213 7.59493 28.6736 7.72321 28.8018C7.98227 29.0609 8.33364 29.2064 8.70001 29.2064C8.88142 29.2064 9.06105 29.1707 9.22865 29.1013C9.39625 29.0319 9.54853 28.9301 9.67681 28.8018L18 20.4762L26.3256 28.8018C26.5847 29.0606 26.9359 29.2058 27.3021 29.2056C27.6682 29.2054 28.0193 29.0597 28.278 28.8006C28.5368 28.5416 28.682 28.1903 28.6818 27.8242C28.6815 27.458 28.5359 27.107 28.2768 26.8482L19.9512 18.525L28.2768 10.2018Z" fill="#A9A6A6"/>
</svg>
